<svg width="61" height="60" viewBox="0 0 61 60" fill="none" xmlns="http://www.w3.org/2000/svg">
<g clip-path="url(#clip0_3551_2464)">
<path d="M11.8601 36.0376V59.3961C11.8601 59.7295 12.1303 59.9997 12.4637 59.9997H49.3694C49.7028 59.9997 49.973 59.7295 49.973 59.3961V36.0376H11.8601Z" fill="#EAF9FA"/>
<path d="M46.3692 36.0376V56.7387C46.3692 57.0721 46.099 57.3423 45.7656 57.3423H11.8601V59.3962C11.8601 59.7296 12.1303 59.9999 12.4637 59.9999H49.3694C49.7028 59.9999 49.973 59.7296 49.973 59.3962V36.0376H46.3692Z" fill="#D5E8EB"/>
<path d="M19.0788 45.3895H16.0607C15.7273 45.3895 15.457 45.1193 15.457 44.7859V41.7677C15.457 41.4343 15.7273 41.1641 16.0607 41.1641H19.0788C19.4122 41.1641 19.6825 41.4343 19.6825 41.7677V44.7859C19.6823 45.1193 19.4121 45.3895 19.0788 45.3895Z" fill="#6BD9E7"/>
<path d="M45.7724 45.3895H42.7543C42.4209 45.3895 42.1506 45.1193 42.1506 44.7859V41.7677C42.1506 41.4343 42.4209 41.1641 42.7543 41.1641H45.7724C46.1058 41.1641 46.3761 41.4343 46.3761 41.7677V44.7859C46.3761 45.1193 46.1058 45.3895 45.7724 45.3895Z" fill="#6BD9E7"/>
<path d="M45.7723 41.1641H44.6791V43.0377C44.6791 43.3711 44.4088 43.6413 44.0754 43.6413H42.1506V44.7857C42.1506 45.1191 42.4209 45.3894 42.7543 45.3894H45.7724C46.1058 45.3894 46.3761 45.1191 46.3761 44.7857V41.7676C46.3759 41.4343 46.1057 41.1641 45.7723 41.1641Z" fill="#2ED1E2"/>
<path d="M19.0788 55.0477H16.0607C15.7273 55.0477 15.457 54.7775 15.457 54.4441V51.4259C15.457 51.0925 15.7273 50.8223 16.0607 50.8223H19.0788C19.4122 50.8223 19.6825 51.0925 19.6825 51.4259V54.4441C19.6823 54.7775 19.4121 55.0477 19.0788 55.0477Z" fill="#6BD9E7"/>
<path d="M45.7724 55.0477H42.7543C42.4209 55.0477 42.1506 54.7775 42.1506 54.4441V51.4259C42.1506 51.0925 42.4209 50.8223 42.7543 50.8223H45.7724C46.1058 50.8223 46.3761 51.0925 46.3761 51.4259V54.4441C46.3761 54.7775 46.1058 55.0477 45.7724 55.0477Z" fill="#6BD9E7"/>
<path d="M13.3607 26.3819L9.1184 35.2953C8.92774 35.6958 9.21989 36.1584 9.66344 36.1584H52.1695C52.613 36.1584 52.9052 35.696 52.7145 35.2953L48.4722 26.3818C48.3721 26.1715 48.16 26.0376 47.9272 26.0376H13.9057C13.6729 26.0376 13.4608 26.1715 13.3607 26.3819Z" fill="#2ED1E2"/>
<path d="M52.7145 35.2953L48.4722 26.3818C48.3721 26.1715 48.16 26.0376 47.9272 26.0376H45.1001L48.2415 32.6377C48.4321 33.0383 48.1401 33.5008 47.6964 33.5008H9.97248L9.11842 35.2953C8.92775 35.6958 9.21978 36.1584 9.66346 36.1584H52.1695C52.6131 36.1584 52.9052 35.6958 52.7145 35.2953Z" fill="#07B2CD"/>
<path d="M24.3409 41.1016H30.9166V59.9999H23.1338V42.3088C23.1338 41.6421 23.6743 41.1016 24.3409 41.1016Z" fill="#2ED1E2"/>
<path d="M24.3409 41.1016H30.9166V59.9999H23.1338V42.3088C23.1338 41.6421 23.6743 41.1016 24.3409 41.1016Z" fill="#2ED1E2"/>
<path d="M30.9165 41.1016H37.4921C38.1589 41.1016 38.6994 41.642 38.6994 42.3088V59.9999H30.9165V41.1016Z" fill="#6BD9E7"/>
<path d="M41.9816 11.0651C41.9816 4.87162 36.8931 -0.133345 30.6688 0.0027097C24.6124 0.135014 19.8371 5.03415 19.8514 11.0919C19.8601 14.7878 21.6812 18.0572 24.4728 20.0599C26.2049 21.3027 27.6221 22.9337 28.688 24.7799L30.3235 27.6126C30.587 28.069 31.2458 28.069 31.5094 27.6126L33.0664 24.9158C34.1678 23.008 35.6264 21.3183 37.4093 20.0243C40.1797 18.0137 41.9816 14.7502 41.9816 11.0651Z" fill="#F07B52"/>
<path d="M30.9163 15.569C33.4038 15.569 35.4203 13.5525 35.4203 11.065C35.4203 8.57754 33.4038 6.56104 30.9163 6.56104C28.4289 6.56104 26.4124 8.57754 26.4124 11.065C26.4124 13.5525 28.4289 15.569 30.9163 15.569Z" fill="white"/>
<path d="M30.9265 6.56104C32.0199 7.38275 32.7272 8.69057 32.7272 10.1636C32.7272 12.6512 30.7106 14.6676 28.2232 14.6676C28.2198 14.6676 28.2165 14.6674 28.2131 14.6674C28.9661 15.2333 29.902 15.5688 30.9164 15.5688C33.404 15.5688 35.4205 13.5522 35.4205 11.0648C35.4205 8.58076 33.4093 6.56654 30.9265 6.56104Z" fill="#FAF7F7"/>
<path d="M30.8024 0.00154951C34.7273 1.70171 37.4733 5.61003 37.4733 10.1597C37.4733 13.8448 35.6714 17.1083 32.901 19.119C31.1181 20.413 29.6595 22.1028 28.558 24.0106L28.3945 24.2937C28.4947 24.4542 28.5933 24.6158 28.688 24.7799L30.3234 27.6126C30.587 28.069 31.2458 28.069 31.5094 27.6126L33.0663 24.9158C34.1678 23.008 35.6264 21.3183 37.4093 20.0243C40.1797 18.0136 41.9816 14.7501 41.9816 11.065C41.9816 4.91616 36.9656 -0.0604427 30.8024 0.00154951Z" fill="#E5563C"/>
<path d="M45.7723 50.8223H44.6791V52.6959C44.6791 53.0293 44.4088 53.2995 44.0754 53.2995H42.1506V54.4439C42.1506 54.7773 42.4209 55.0476 42.7543 55.0476H45.7724C46.1058 55.0476 46.3761 54.7773 46.3761 54.4439V51.4258C46.3759 51.0925 46.1057 50.8223 45.7723 50.8223Z" fill="#2ED1E2"/>
<path d="M19.0787 50.8223H17.9855V52.6959C17.9855 53.0293 17.7152 53.2995 17.3818 53.2995H15.457V54.4439C15.457 54.7773 15.7273 55.0476 16.0607 55.0476H19.0788C19.4122 55.0476 19.6825 54.7773 19.6825 54.4439V51.4258C19.6822 51.0925 19.412 50.8223 19.0787 50.8223Z" fill="#2ED1E2"/>
<path d="M19.0787 41.1646H17.9855V43.0381C17.9855 43.3715 17.7152 43.6418 17.3818 43.6418H15.457V44.7862C15.457 45.1196 15.7273 45.3899 16.0607 45.3899H19.0788C19.4122 45.3899 19.6825 45.1196 19.6825 44.7862V41.7681C19.6822 41.4348 19.412 41.1646 19.0787 41.1646Z" fill="#2ED1E2"/>
</g>
<defs>
<clipPath id="clip0_3551_2464">
<rect width="60" height="60" fill="white" transform="translate(0.916504)"/>
</clipPath>
</defs>
</svg>
