<svg width="61" height="60" viewBox="0 0 61 60" fill="none" xmlns="http://www.w3.org/2000/svg">
<g clip-path="url(#clip0_3551_2072)">
<path d="M59.1448 19.1726L31.1449 0.172573C30.8058 -0.0574658 30.3609 -0.057583 30.0218 0.172573L2.02177 19.1726C1.74755 19.3586 1.58325 19.6685 1.58325 20V59C1.58325 59.5523 2.03103 60 2.58321 60H58.5833C59.1356 60 59.5832 59.5522 59.5832 59V20C59.5833 19.6685 59.4192 19.3586 59.1448 19.1726Z" fill="#F07B52"/>
<path d="M4.58337 59.0001V20.0001C4.58337 19.6686 4.74767 19.3587 5.02188 19.1727L32.0833 0.809487L31.1447 0.172573C30.8057 -0.0574658 30.3608 -0.057583 30.0217 0.172573L2.02177 19.1727C1.74755 19.3587 1.58325 19.6687 1.58325 20.0001V59.0001C1.58325 59.5524 2.03103 60.0001 2.58321 60.0001H5.58321C5.03103 60.0001 4.58337 59.5525 4.58337 59.0001Z" fill="#E5563C"/>
<path d="M48.5832 24H12.5832C12.0309 24 11.5833 24.4478 11.5833 25V58.9999C11.5833 59.5522 12.031 59.9999 12.5832 59.9999H48.5832C49.1355 59.9999 49.5832 59.5521 49.5832 58.9999V25.0001C49.5833 24.4478 49.1355 24 48.5832 24Z" fill="#555A6E"/>
<path d="M12.5832 24C12.0309 24 11.5833 24.4478 11.5833 25V58.9999C11.5833 59.5522 12.031 59.9999 12.5832 59.9999H14.5833V24H12.5832Z" fill="#463C4B"/>
<path d="M50.5832 20H10.5832C10.0309 20 9.58325 20.4478 9.58325 21V24.9999C9.58325 25.5522 10.031 25.9999 10.5832 25.9999H50.5832C51.1355 25.9999 51.5831 25.5521 51.5831 24.9999V21C51.5831 20.4478 51.1354 20 50.5832 20Z" fill="#E5F4FF"/>
<path d="M50.5832 24H10.5832C10.0309 24 9.58325 23.5522 9.58325 23V25C9.58325 25.5523 10.031 26 10.5832 26H50.5832C51.1355 26 51.5831 25.5522 51.5831 25V23C51.5831 23.5524 51.1354 24 50.5832 24Z" fill="#C4DAEC"/>
<path d="M34.5833 8.99992H26.5832C26.0309 8.99992 25.5833 8.55215 25.5833 7.99996C25.5833 7.44766 26.031 7 26.5832 7H34.5833C35.1356 7 35.5832 7.44777 35.5832 7.99996C35.5832 8.55227 35.1354 8.99992 34.5833 8.99992Z" fill="#E5563C"/>
<path d="M34.5833 12.9999H26.5832C26.0309 12.9999 25.5833 12.5521 25.5833 12C25.5833 11.4478 26.031 11 26.5832 11H34.5833C35.1356 11 35.5832 11.4478 35.5832 12C35.5832 12.5521 35.1354 12.9999 34.5833 12.9999Z" fill="#E5563C"/>
<path d="M34.5833 16.9999H26.5832C26.0309 16.9999 25.5833 16.5521 25.5833 16C25.5833 15.4477 26.031 15 26.5832 15H34.5833C35.1356 15 35.5832 15.4478 35.5832 16C35.5832 16.5521 35.1354 16.9999 34.5833 16.9999Z" fill="#E5563C"/>
<path d="M24.5832 32H12.5832C12.0309 32 11.5833 32.4478 11.5833 33V45C11.5833 45.5523 12.031 45.9999 12.5832 45.9999L18.5832 46.9999L24.5832 45.9999C25.1355 45.9999 25.5832 45.5521 25.5832 45V33C25.5833 32.4478 25.1356 32 24.5832 32Z" fill="#FFD886"/>
<path d="M24.5832 46H12.5832C12.0309 46 11.5833 46.4478 11.5833 47V59C11.5833 59.5523 12.031 59.9999 12.5832 59.9999H24.5832C25.1355 59.9999 25.5832 59.5521 25.5832 59V47C25.5833 46.4478 25.1356 46 24.5832 46Z" fill="#FFD886"/>
<path d="M13.5833 59V47C13.5833 46.4477 14.0311 46 14.5833 46H12.5832C12.0309 46 11.5833 46.4478 11.5833 47V59C11.5833 59.5523 12.031 59.9999 12.5832 59.9999H14.5833C14.0309 59.9999 13.5833 59.5524 13.5833 59Z" fill="#FFC964"/>
<path d="M20.5832 46H16.5833V50.9999C16.5833 51.5522 17.031 51.9999 17.5832 51.9999H19.5833C20.1356 51.9999 20.5832 51.5521 20.5832 50.9999V46Z" fill="#E57917"/>
<path d="M20.5832 57.9999H16.5832C16.0309 57.9999 15.5833 57.5521 15.5833 57C15.5833 56.4478 16.031 56 16.5832 56H20.5832C21.1355 56 21.5831 56.4478 21.5831 57C21.5831 57.5521 21.1355 57.9999 20.5832 57.9999Z" fill="#555A6E"/>
<path d="M13.5833 45V33C13.5833 32.4477 14.0311 32 14.5833 32H12.5832C12.0309 32 11.5833 32.4478 11.5833 33V45C11.5833 45.5523 12.031 45.9999 12.5832 45.9999H14.5833C14.0309 46 13.5833 45.5524 13.5833 45Z" fill="#FFC964"/>
<path d="M20.5832 32H16.5833V37C16.5833 37.5523 17.031 38 17.5832 38H19.5833C20.1356 38 20.5832 37.5522 20.5832 37V32Z" fill="#E57917"/>
<path d="M20.5832 43.9999H16.5832C16.0309 43.9999 15.5833 43.5521 15.5833 43C15.5833 42.4478 16.031 42 16.5832 42H20.5832C21.1355 42 21.5831 42.4478 21.5831 43C21.5831 43.5521 21.1355 43.9999 20.5832 43.9999Z" fill="#555A6E"/>
<path d="M38.5832 46H26.5832C26.0309 46 25.5833 46.4478 25.5833 47V59C25.5833 59.5523 26.031 59.9999 26.5832 59.9999H38.5832C39.1355 59.9999 39.5832 59.5521 39.5832 59V47C39.5832 46.4478 39.1355 46 38.5832 46Z" fill="#FFD886"/>
<path d="M27.5833 59V47C27.5833 46.4477 28.0311 46 28.5833 46H26.5832C26.0309 46 25.5833 46.4478 25.5833 47V59C25.5833 59.5523 26.031 59.9999 26.5832 59.9999H28.5833C28.0311 59.9999 27.5833 59.5524 27.5833 59Z" fill="#FFC964"/>
<path d="M34.5833 46H30.5833V50.9999C30.5833 51.5522 31.031 51.9999 31.5832 51.9999H33.5833C34.1356 51.9999 34.5832 51.5521 34.5832 50.9999V46H34.5833Z" fill="#E57917"/>
<path d="M34.5833 57.9999H30.5832C30.0309 57.9999 29.5833 57.5521 29.5833 57C29.5833 56.4478 30.031 56 30.5832 56H34.5832C35.1355 56 35.5831 56.4478 35.5831 57C35.5831 57.5521 35.1355 57.9999 34.5833 57.9999Z" fill="#555A6E"/>
</g>
<defs>
<clipPath id="clip0_3551_2072">
<rect width="60" height="60" fill="white" transform="translate(0.583252)"/>
</clipPath>
</defs>
</svg>
